<?xml version="1.0" encoding="iso-8859-1"?>
<!-- Generator: Adobe Illustrator 19.0.0, SVG Export Plug-In . SVG Version: 6.00 Build 0)  -->
<svg version="1.1" id="Layer_1" xmlns="http://www.w3.org/2000/svg" xmlns:xlink="http://www.w3.org/1999/xlink" x="0px" y="0px"
	 viewBox="0 0 512.001 512.001" style="enable-background:new 0 0 512.001 512.001;" xml:space="preserve">
<path style="fill:#CFF09E;" d="M348.306,422.82v-66.395V290.03h43.618v-35.448H76.459V450.16c0,26.211,21.247,47.458,47.458,47.458
	h220.551c26.211,0,47.458-21.247,47.458-47.458v-27.341h-43.619V422.82z M234.191,395.522c-20.387,0-36.915-16.527-36.915-36.915
	c0-20.387,16.527-36.915,36.915-36.915s36.915,16.527,36.915,36.915C271.107,378.994,254.578,395.522,234.191,395.522z"/>
<g>
	<path style="fill:#507C5C;" d="M435.543,275.647h-29.235v-21.065c0-7.943-6.439-14.382-14.382-14.382H76.459
		c-7.943,0-14.382,6.439-14.382,14.382v195.579c0,34.098,27.742,61.84,61.84,61.84h220.551c34.098,0,61.84-27.741,61.84-61.84
		V422.82c0-7.943-6.439-14.382-14.382-14.382H362.69v-37.63h58.47v24.965c0,7.943,6.439,14.382,14.382,14.382
		s14.382-6.439,14.382-14.382v-39.348V290.03C449.925,282.086,443.486,275.647,435.543,275.647z M377.541,437.201v12.959
		c0,18.237-14.837,33.075-33.075,33.075H123.916c-18.238,0-33.075-14.837-33.075-33.075V268.965h286.702v6.682h-29.235
		c-7.943,0-14.382,6.439-14.382,14.382v66.395v66.395c0,7.943,6.439,14.382,14.382,14.382h29.234V437.201z M362.688,342.042v-37.63
		h29.235h29.235v37.63H362.688z"/>
	<path style="fill:#507C5C;" d="M234.191,307.309c-28.286,0-51.298,23.012-51.298,51.298c0,23.292,15.611,42.995,36.915,49.23
		v24.127c0,7.943,6.439,14.382,14.382,14.382c7.943,0,14.382-6.439,14.382-14.382v-24.127c21.305-6.235,36.915-25.937,36.915-49.23
		C285.489,330.321,262.477,307.309,234.191,307.309z M234.191,381.138c-12.425,0-22.533-10.108-22.533-22.533
		s10.108-22.533,22.533-22.533s22.533,10.108,22.533,22.533C256.724,371.03,246.616,381.138,234.191,381.138z"/>
	<path style="fill:#507C5C;" d="M334.868,212.881c-7.943,0-14.382-6.439-14.382-14.382V115.06c0-47.583-38.712-86.295-86.295-86.295
		s-86.295,38.712-86.295,86.295v83.438c0,7.943-6.439,14.382-14.382,14.382s-14.382-6.439-14.382-14.382V115.06
		C119.131,51.616,170.747,0,234.191,0s115.06,51.616,115.06,115.06v83.438C349.251,206.442,342.812,212.881,334.868,212.881z"/>
</g>
<g>
</g>
<g>
</g>
<g>
</g>
<g>
</g>
<g>
</g>
<g>
</g>
<g>
</g>
<g>
</g>
<g>
</g>
<g>
</g>
<g>
</g>
<g>
</g>
<g>
</g>
<g>
</g>
<g>
</g>
</svg>
